<mxfile host="app.diagrams.net" modified="2024-07-17T02:46:21.315Z" agent="Mozilla/5.0 (Macintosh; Intel Mac OS X 10_15_7) AppleWebKit/537.36 (KHTML, like Gecko) Chrome/126.0.0.0 Safari/537.36" version="21.6.5" etag="WubF5fXsugl3d11wFe3i" type="github">
  <diagram name="第 1 页" id="e1HDuGCnm1WgnCrTocjZ">
    <mxGraphModel>
      <root>
        <mxCell id="0" />
        <mxCell id="1" parent="0" />
      </root>
    </mxGraphModel>
  </diagram>
</mxfile>
